<svg version="1.1" id="Layer_1" xmlns="http://www.w3.org/2000/svg" xmlns:xlink="http://www.w3.org/1999/xlink" x="0px" y="0px"
	 width="100%" viewBox="0 0 600 600" enable-background="new 0 0 600 600" xml:space="preserve">
<path fill="#FFFFFF" opacity="1.000000" stroke="none" 
	d="
M601.000000,226.000000 
	C601.000000,351.333344 601.000000,476.166656 601.000000,601.000000 
	C401.000000,601.000000 201.000000,601.000000 1.000000,601.000000 
	C1.000000,401.000000 1.000000,201.000000 1.000000,1.000000 
	C201.000000,1.000000 401.000000,1.000000 601.000000,1.000000 
	C601.000000,75.833336 601.000000,150.666672 601.000000,226.000000 
M177.295883,481.796021 
	C298.373627,360.718262 419.451385,239.640518 541.371216,117.720688 
	C522.102966,98.467827 503.419739,79.799545 485.046875,61.441395 
	C343.784851,202.703415 202.702835,343.785400 61.453812,485.034424 
	C79.853104,503.453735 98.513374,522.134338 117.724915,541.366760 
	C137.996216,521.095581 157.396042,501.695801 177.295883,481.796021 
M42.802753,418.302948 
	C172.061630,289.046295 301.320496,159.789658 430.326477,30.785910 
	C428.333435,28.884438 425.210968,25.192774 424.694763,25.526955 
	C420.942535,27.956062 419.486816,22.914534 416.210419,23.318571 
	C414.908691,23.479095 412.137329,21.639534 409.879272,20.876431 
	C402.221680,18.288572 394.712799,15.260839 387.144592,12.407861 
	C386.765717,12.265025 386.357819,12.201012 385.972504,12.073076 
	C384.313080,11.522107 382.666595,10.928995 380.992401,10.428067 
	C380.617615,10.315929 380.134338,10.615783 379.727661,10.553056 
	C375.963989,9.972466 372.131989,9.628289 368.475616,8.639431 
	C366.415222,8.082196 364.647064,6.444262 363.984375,6.042729 
	C362.032318,6.042729 361.141022,6.240039 360.389679,5.999721 
	C359.023682,5.562812 357.740845,4.865836 356.423309,4.277390 
	C355.469788,8.260865 353.552612,3.359873 352.314880,4.723001 
	C349.861603,1.860644 346.943695,3.050743 344.391907,4.215651 
	C342.665009,5.003989 341.305634,6.682288 339.903107,8.083828 
	C303.126160,44.834690 266.365234,81.601578 229.601257,118.365410 
	C155.601990,192.364395 81.598572,266.359253 7.622433,340.381348 
	C5.456013,342.549164 2.976447,344.298279 3.757314,348.442841 
	C4.546309,352.630524 4.995663,356.864410 6.345380,360.951141 
	C6.547638,361.563568 5.892588,362.459167 5.671134,363.114288 
	C6.003459,363.884064 6.573598,364.905792 6.894631,366.000580 
	C8.212775,370.495819 9.461330,375.011627 10.671296,379.536987 
	C10.691236,379.611572 9.901499,379.902588 9.489598,380.092621 
	C9.849065,380.396240 10.293540,380.640930 10.552301,381.014313 
	C11.377937,382.205719 13.092429,383.935699 12.759889,384.584747 
	C10.838013,388.335846 14.437401,390.659119 14.818963,393.802399 
	C15.221238,397.116333 16.281454,400.850891 18.340376,403.336151 
	C20.895130,406.419861 19.318928,410.726624 22.375526,413.651550 
	C22.886810,414.140747 25.517696,416.662628 24.686790,418.465363 
	C23.387613,421.284058 27.533726,422.139679 26.433950,425.123566 
	C26.033464,426.210114 29.125443,428.583893 30.722670,430.488007 
	C34.565105,426.610718 38.433918,422.706818 42.802753,418.302948 
M285.723785,458.223480 
	C247.805298,496.141998 209.886841,534.060547 171.562256,572.385193 
	C198.711349,587.198792 228.259476,592.773560 257.500275,599.319458 
	C256.782837,599.062622 256.065430,598.805786 256.115753,598.823792 
	C257.989746,597.592285 260.508728,596.480347 262.325378,594.665466 
	C373.118896,483.976898 483.860321,373.236176 594.549805,262.443573 
	C596.389282,260.602386 597.533264,258.066345 598.840759,256.097229 
	C598.845581,256.109161 599.176086,256.919006 599.506531,257.728882 
	C592.687317,228.446014 587.275879,198.713699 572.384766,171.554596 
	C476.594910,267.347046 381.409302,362.535217 285.723785,458.223480 
M376.349457,592.141418 
	C377.647888,592.283569 378.950897,592.563904 380.243256,592.521240 
	C381.168427,592.490784 382.113800,592.109436 382.989197,591.740112 
	C384.640411,591.043518 386.183929,589.990967 387.891785,589.558533 
	C389.480591,589.156128 391.373077,589.764648 392.862823,589.208008 
	C394.659027,588.536865 396.043335,586.788513 397.832092,586.067322 
	C402.320007,584.257751 406.974701,582.865417 411.485870,581.108826 
	C414.544312,579.917847 417.420380,578.259583 420.476227,577.060486 
	C422.914368,576.103760 425.645355,575.824768 427.982605,574.697876 
	C430.540131,573.464844 432.721588,571.471008 435.222015,570.089539 
	C436.065491,569.623474 437.383179,570.015747 437.709808,570.015747 
	C439.444519,569.203003 440.817383,568.750916 441.980377,567.981567 
	C446.801178,564.792664 451.254608,560.851990 456.429688,558.453430 
	C461.069122,556.303040 464.910065,552.825073 469.858154,551.216675 
	C471.601501,550.649963 472.680115,548.269409 474.297943,547.022949 
	C476.051941,545.671631 477.990662,544.466980 480.019562,543.596130 
	C481.529236,542.948181 481.694763,538.726624 484.628662,541.744995 
	C486.027924,538.367615 488.031403,536.464905 491.796600,534.718140 
	C496.667145,532.458557 500.181030,527.246216 504.233063,523.258545 
	C508.270447,519.285217 512.513184,515.477661 516.177673,511.181061 
	C519.390198,507.414429 523.764099,504.944061 526.204102,500.139343 
	C528.252441,496.105865 533.827942,494.566162 535.349670,489.342957 
	C536.223511,486.343811 540.201843,485.498322 541.628235,482.112885 
	C544.514404,475.262543 550.741516,470.556702 554.067444,463.720154 
	C556.857910,457.984344 561.127502,452.961060 564.058777,447.167297 
	C565.693359,443.936340 568.007935,441.049438 569.798889,438.336456 
	C569.897949,437.112854 569.547852,435.526764 570.182800,434.675232 
	C572.287964,431.852112 574.008301,429.021210 575.152100,425.569458 
	C576.203186,422.397339 577.320312,419.033905 578.779663,416.164551 
	C581.146973,411.510162 582.811768,406.681458 584.717285,401.890869 
	C586.055481,398.526520 588.267151,395.490540 589.433350,392.083618 
	C590.216919,389.794403 589.719788,387.093811 590.073547,384.616943 
	C590.211487,383.650909 591.358643,382.859039 591.618713,381.874847 
	C592.513855,378.488464 593.220032,375.052124 594.053101,371.393555 
	C594.305359,371.514465 593.119446,370.998077 593.138855,370.947876 
	C594.172485,368.275146 595.307800,365.641724 596.428711,363.013367 
	C596.837097,363.142670 595.952515,362.862610 595.193237,362.622223 
	C595.874268,356.635590 599.789856,351.278076 597.890625,346.001160 
	C513.937073,429.954956 429.814636,514.077698 346.224915,597.667664 
	C347.429108,598.056458 351.219452,599.604553 351.384430,599.284363 
	C353.497314,595.184387 357.654022,597.122192 360.619659,595.861267 
	C361.410034,595.525208 362.634460,596.209900 363.975739,596.492615 
	C364.462769,596.109619 365.645569,594.565491 367.149536,594.129639 
	C369.931854,593.323364 372.902222,593.165955 376.349457,592.141418 
M12.859417,218.651596 
	C12.239194,219.941788 11.479313,221.186172 11.036957,222.534698 
	C10.569240,223.960556 10.556041,225.540359 10.049750,226.946884 
	C9.742854,227.799454 8.681011,234.314621 8.398441,235.255630 
	C7.601160,237.910614 6.397921,240.443680 5.306802,243.143219 
	C8.486021,247.679108 2.903479,252.804047 4.152092,257.260468 
	C88.584770,172.827805 172.976196,88.436424 257.713348,3.699312 
	C254.574997,4.481329 251.511108,5.096235 248.546997,6.028449 
	C245.983170,6.834767 243.368195,4.128038 240.545563,6.735453 
	C239.659912,7.553594 236.454865,7.968528 233.720917,7.586938 
	C229.808594,7.040870 225.450760,10.001347 221.223267,11.263947 
	C219.157532,11.880903 216.928467,11.933376 214.828720,12.461562 
	C213.805023,12.719073 212.957001,13.610080 211.945587,13.992602 
	C208.009735,15.481162 204.095474,16.597893 199.716904,16.685862 
	C197.450836,16.731384 195.393204,19.796186 192.970276,20.903839 
	C187.734314,23.297491 182.333221,25.333735 176.959808,27.413227 
	C176.641190,27.536535 175.970642,26.750490 176.096207,26.840395 
	C173.962524,28.303242 171.993561,29.638969 170.041214,30.998528 
	C169.242264,31.554884 168.495987,32.644314 167.697220,32.672138 
	C160.317642,32.929192 156.072906,41.039040 148.354050,40.312683 
	C148.063919,45.453857 142.759903,44.699791 140.164749,47.178104 
	C138.126266,49.124802 135.502197,50.476009 133.079666,51.998516 
	C129.743713,54.095081 126.060654,55.747768 123.043411,58.221375 
	C115.914963,64.065475 109.146652,70.346207 102.134125,76.334930 
	C87.498718,88.833595 74.329102,102.700409 63.039852,118.292114 
	C61.418301,120.531662 59.400249,122.311043 58.005501,125.014305 
	C54.668152,131.482681 49.239883,136.855408 45.728809,143.258820 
	C44.196636,146.053146 41.315620,147.591202 40.405766,150.901428 
	C39.519646,154.125275 37.095821,156.893753 35.879646,160.066299 
	C33.192669,167.075607 27.798607,172.789230 26.079697,180.172302 
	C24.605259,186.505310 19.735300,191.394470 18.947830,197.954620 
	C18.904093,198.318985 18.357752,198.596588 18.149067,198.972198 
	C17.254635,200.582062 15.493673,202.337158 15.695379,203.814484 
	C16.358599,208.672043 14.115415,212.293289 11.816285,216.065933 
	C11.643290,216.349808 12.558612,217.296906 12.859417,218.651596 
z"/>
<path fill="#030303" opacity="1.000000" stroke="none" 
	d="
M177.045868,482.046021 
	C157.396042,501.695801 137.996216,521.095581 117.724915,541.366760 
	C98.513374,522.134338 79.853104,503.453735 61.453812,485.034424 
	C202.702835,343.785400 343.784851,202.703415 485.046875,61.441395 
	C503.419739,79.799545 522.102966,98.467827 541.371216,117.720688 
	C419.451385,239.640518 298.373627,360.718262 177.045868,482.046021 
z"/>
<path fill="#030303" opacity="1.000000" stroke="none" 
	d="
M42.552742,418.552917 
	C38.433918,422.706818 34.565105,426.610718 30.722670,430.488007 
	C29.125443,428.583893 26.033464,426.210114 26.433950,425.123566 
	C27.533726,422.139679 23.387613,421.284058 24.686790,418.465363 
	C25.517696,416.662628 22.886810,414.140747 22.375526,413.651550 
	C19.318928,410.726624 20.895130,406.419861 18.340376,403.336151 
	C16.281454,400.850891 15.221238,397.116333 14.818963,393.802399 
	C14.437401,390.659119 10.838013,388.335846 12.759889,384.584747 
	C13.092429,383.935699 11.377937,382.205719 10.552301,381.014313 
	C10.293540,380.640930 9.849065,380.396240 9.489595,380.092590 
	C9.901499,379.902588 10.691236,379.611572 10.671296,379.536987 
	C9.461330,375.011627 8.212775,370.495819 6.894631,366.000580 
	C6.573598,364.905792 6.003459,363.884064 5.671134,363.114288 
	C5.892588,362.459167 6.547638,361.563568 6.345380,360.951141 
	C4.995663,356.864410 4.546309,352.630524 3.757314,348.442841 
	C2.976447,344.298279 5.456013,342.549164 7.622433,340.381348 
	C81.598572,266.359253 155.601990,192.364395 229.601257,118.365410 
	C266.365234,81.601578 303.126160,44.834690 339.903107,8.083828 
	C341.305634,6.682288 342.665009,5.003989 344.391907,4.215651 
	C346.943695,3.050743 349.861603,1.860644 352.314880,4.723001 
	C353.552612,3.359873 355.469788,8.260865 356.423309,4.277390 
	C357.740845,4.865836 359.023682,5.562812 360.389679,5.999721 
	C361.141022,6.240039 362.032318,6.042729 363.984375,6.042729 
	C364.647064,6.444262 366.415222,8.082196 368.475616,8.639431 
	C372.131989,9.628289 375.963989,9.972466 379.727661,10.553056 
	C380.134338,10.615783 380.617615,10.315929 380.992401,10.428067 
	C382.666595,10.928995 384.313080,11.522107 385.972504,12.073076 
	C386.357819,12.201012 386.765717,12.265025 387.144592,12.407861 
	C394.712799,15.260839 402.221680,18.288572 409.879272,20.876431 
	C412.137329,21.639534 414.908691,23.479095 416.210419,23.318571 
	C419.486816,22.914534 420.942535,27.956062 424.694763,25.526955 
	C425.210968,25.192774 428.333435,28.884438 430.326477,30.785910 
	C301.320496,159.789658 172.061630,289.046295 42.552742,418.552917 
z"/>
<path fill="#030303" opacity="1.000000" stroke="none" 
	d="
M285.973724,457.973450 
	C381.409302,362.535217 476.594910,267.347046 572.384766,171.554596 
	C587.275879,198.713699 592.687317,228.446014 599.506531,257.728882 
	C599.176086,256.919006 598.845581,256.109161 598.840759,256.097229 
	C597.533264,258.066345 596.389282,260.602386 594.549805,262.443573 
	C483.860321,373.236176 373.118896,483.976898 262.325378,594.665466 
	C260.508728,596.480347 257.989746,597.592285 256.115753,598.823792 
	C256.065430,598.805786 256.782837,599.062622 257.500275,599.319458 
	C228.259476,592.773560 198.711349,587.198792 171.562256,572.385193 
	C209.886841,534.060547 247.805298,496.141998 285.973724,457.973450 
z"/>
<path fill="#030303" opacity="1.000000" stroke="none" 
	d="
M376.071838,592.439819 
	C372.902222,593.165955 369.931854,593.323364 367.149536,594.129639 
	C365.645569,594.565491 364.462769,596.109619 363.975739,596.492615 
	C362.634460,596.209900 361.410034,595.525208 360.619659,595.861267 
	C357.654022,597.122192 353.497314,595.184387 351.384430,599.284363 
	C351.219452,599.604553 347.429108,598.056458 346.224915,597.667664 
	C429.814636,514.077698 513.937073,429.954956 597.890625,346.001160 
	C599.789856,351.278076 595.874268,356.635590 595.193237,362.622223 
	C595.952515,362.862610 596.837097,363.142670 596.428711,363.013367 
	C595.307800,365.641724 594.172485,368.275146 593.138855,370.947876 
	C593.119446,370.998077 594.305359,371.514465 594.053101,371.393555 
	C593.220032,375.052124 592.513855,378.488464 591.618713,381.874847 
	C591.358643,382.859039 590.211487,383.650909 590.073547,384.616943 
	C589.719788,387.093811 590.216919,389.794403 589.433350,392.083618 
	C588.267151,395.490540 586.055481,398.526520 584.717285,401.890869 
	C582.811768,406.681458 581.146973,411.510162 578.779663,416.164551 
	C577.320312,419.033905 576.203186,422.397339 575.152100,425.569458 
	C574.008301,429.021210 572.287964,431.852112 570.182800,434.675232 
	C569.547852,435.526764 569.897949,437.112854 569.798889,438.336456 
	C568.007935,441.049438 565.693359,443.936340 564.058777,447.167297 
	C561.127502,452.961060 556.857910,457.984344 554.067444,463.720154 
	C550.741516,470.556702 544.514404,475.262543 541.628235,482.112885 
	C540.201843,485.498322 536.223511,486.343811 535.349670,489.342957 
	C533.827942,494.566162 528.252441,496.105865 526.204102,500.139343 
	C523.764099,504.944061 519.390198,507.414429 516.177673,511.181061 
	C512.513184,515.477661 508.270447,519.285217 504.233063,523.258545 
	C500.181030,527.246216 496.667145,532.458557 491.796600,534.718140 
	C488.031403,536.464905 486.027924,538.367615 484.628662,541.744995 
	C481.694763,538.726624 481.529236,542.948181 480.019562,543.596130 
	C477.990662,544.466980 476.051941,545.671631 474.297943,547.022949 
	C472.680115,548.269409 471.601501,550.649963 469.858154,551.216675 
	C464.910065,552.825073 461.069122,556.303040 456.429688,558.453430 
	C451.254608,560.851990 446.801178,564.792664 441.980377,567.981567 
	C440.817383,568.750916 439.444519,569.203003 437.709808,570.015747 
	C437.383179,570.015747 436.065491,569.623474 435.222015,570.089539 
	C432.721588,571.471008 430.540131,573.464844 427.982605,574.697876 
	C425.645355,575.824768 422.914368,576.103760 420.476227,577.060486 
	C417.420380,578.259583 414.544312,579.917847 411.485870,581.108826 
	C406.974701,582.865417 402.320007,584.257751 397.832092,586.067322 
	C396.043335,586.788513 394.659027,588.536865 392.862823,589.208008 
	C391.373077,589.764648 389.480591,589.156128 387.891785,589.558533 
	C386.183929,589.990967 384.640411,591.043518 382.989197,591.740112 
	C382.113800,592.109436 381.168427,592.490784 380.243256,592.521240 
	C378.950897,592.563904 377.647888,592.283569 376.071838,592.439819 
z"/>
<path fill="#030303" opacity="1.000000" stroke="none" 
	d="
M12.913720,218.293640 
	C12.558612,217.296906 11.643290,216.349808 11.816285,216.065933 
	C14.115415,212.293289 16.358599,208.672043 15.695379,203.814484 
	C15.493673,202.337158 17.254635,200.582062 18.149067,198.972198 
	C18.357752,198.596588 18.904093,198.318985 18.947830,197.954620 
	C19.735300,191.394470 24.605259,186.505310 26.079697,180.172302 
	C27.798607,172.789230 33.192669,167.075607 35.879646,160.066299 
	C37.095821,156.893753 39.519646,154.125275 40.405766,150.901428 
	C41.315620,147.591202 44.196636,146.053146 45.728809,143.258820 
	C49.239883,136.855408 54.668152,131.482681 58.005501,125.014305 
	C59.400249,122.311043 61.418301,120.531662 63.039852,118.292114 
	C74.329102,102.700409 87.498718,88.833595 102.134125,76.334930 
	C109.146652,70.346207 115.914963,64.065475 123.043411,58.221375 
	C126.060654,55.747768 129.743713,54.095081 133.079666,51.998516 
	C135.502197,50.476009 138.126266,49.124802 140.164749,47.178104 
	C142.759903,44.699791 148.063919,45.453857 148.354050,40.312683 
	C156.072906,41.039040 160.317642,32.929192 167.697220,32.672138 
	C168.495987,32.644314 169.242264,31.554884 170.041214,30.998528 
	C171.993561,29.638969 173.962524,28.303242 176.096207,26.840395 
	C175.970642,26.750490 176.641190,27.536535 176.959808,27.413227 
	C182.333221,25.333735 187.734314,23.297491 192.970276,20.903839 
	C195.393204,19.796186 197.450836,16.731384 199.716904,16.685862 
	C204.095474,16.597893 208.009735,15.481162 211.945587,13.992602 
	C212.957001,13.610080 213.805023,12.719073 214.828720,12.461562 
	C216.928467,11.933376 219.157532,11.880903 221.223267,11.263947 
	C225.450760,10.001347 229.808594,7.040870 233.720917,7.586938 
	C236.454865,7.968528 239.659912,7.553594 240.545563,6.735453 
	C243.368195,4.128038 245.983170,6.834767 248.546997,6.028449 
	C251.511108,5.096235 254.574997,4.481329 257.713348,3.699312 
	C172.976196,88.436424 88.584770,172.827805 4.152092,257.260468 
	C2.903479,252.804047 8.486021,247.679108 5.306802,243.143219 
	C6.397921,240.443680 7.601160,237.910614 8.398441,235.255630 
	C8.681011,234.314621 9.742854,227.799454 10.049750,226.946884 
	C10.556041,225.540359 10.569240,223.960556 11.036957,222.534698 
	C11.479313,221.186172 12.239194,219.941788 12.913720,218.293640 
z"/>
</svg>